<?xml version="1.0" standalone="no"?>
<!DOCTYPE svg PUBLIC "-//W3C//DTD SVG 1.1//EN" "http://www.w3.org/Graphics/SVG/1.1/DTD/svg11.dtd" >
<svg xmlns="http://www.w3.org/2000/svg" xmlns:xlink="http://www.w3.org/1999/xlink" version="1.1">
<metadata></metadata>
<defs>
<font id="homizio_novalight" horiz-adv-x="599" >
<font-face units-per-em="1000" ascent="800" descent="-200" />
<missing-glyph horiz-adv-x="273" />
<glyph unicode="AE" horiz-adv-x="774" d="M418 0v218h-245l-107 -218h-53l340 700h392v-47h-279v-279h259v-44h-259v-286h295v-44h-343zM418 653h-38l-187 -391h225v391z" />
<glyph unicode="ae" horiz-adv-x="891" d="M451 209q-64 43 -133 43q-98 0 -135 -72q-11 -21 -11 -49q0 -71 65 -95q20 -7 47 -7q71 0 116 36q47 39 51 62v82zM313 290q77 0 139 -42l-1 79q-6 144 -120 144q-90 0 -155 -59l-29 29q68 71 188 71q77 0 109 -36t42 -72q62 108 190 108q140 0 180 -142q13 -49 13 -102 v-20h-370q0 -158 103 -204q33 -15 75 -15q85 0 150 53l20 -34q-84 -60 -180 -60q-133 0 -188 111q-74 -87 -147 -105q-26 -6 -53 -6q-53 0 -90.5 23t-53.5 62q-10 24 -10 56q12 116 121 151q31 10 67 10zM674 471q-109 0 -153 -104q-15 -35 -21 -78h322q-5 132 -88 170 q-27 12 -60 12z" />
<glyph unicode="OE" horiz-adv-x="856" d="M500 0q-82 -12 -138 -12q-157 0 -247 100q-88 96 -88 255q0 128 52 216t147 127q61 26 144 26q68 0 130 -12h327v-44h-279v-281h259v-44h-259v-287h295v-44h-343zM367 668q-132 0 -212 -90q-78 -88 -78 -230q0 -109 42.5 -184t120.5 -109q54 -23 121 -23t139 15v608 q-62 13 -133 13z" />
<glyph unicode="oe" horiz-adv-x="900" d="M501 248q0 -157 103 -204q33 -15 75 -15q85 0 164 62l18 -38q-93 -65 -189 -65q-143 0 -194 145q-57 -145 -212 -145q-85 0 -140 42t-80 113q-17 49 -17 104q0 93 37.5 156.5t106.5 90.5q45 18 98 18q115 0 177 -85q21 -29 31 -60q57 145 200 145q140 0 180 -142 q13 -49 13 -102v-20h-371zM676 471q-110 0 -154 -105q-15 -38 -19 -77h321q-5 133 -87 170q-27 12 -61 12zM456 250q0 104 -46.5 162.5t-139.5 58.5q-70 0 -115 -35t-65 -95q-14 -44 -14 -95q0 -152 112 -202q36 -15 80 -15q136 0 175 128q13 44 13 93z" />
<glyph unicode="&#xfb01;" horiz-adv-x="417" d="M396 500v-500h-45v459h-205v-459h-44v459h-90v41h90v87q0 117 84 151q24 10 55 10q33 0 71 -19l-19 -36q-19 14 -54 14q-93 0 -93 -124v-83h250z" />
<glyph unicode="&#xfb02;" horiz-adv-x="545" d="M400 129q0 -50 15.5 -74t56.5 -24q28 0 60 18v-42q-34 -17 -66 -17q-111 0 -111 133v525q-14 59 -112 59q-92 0 -92 -124v-83h132v-41h-132v-459h-45v459h-90v41h90v87q0 117 84 151q24 10 55 10q140 0 155 -100v-519z" />
<glyph horiz-adv-x="0" />
<glyph unicode="&#xd;" horiz-adv-x="97" />
<glyph unicode=" "  horiz-adv-x="273" />
<glyph unicode="&#x09;" horiz-adv-x="273" />
<glyph unicode="&#xa0;" horiz-adv-x="273" />
<glyph unicode="!" horiz-adv-x="107" d="M32 197v503h47l-5 -503h-42zM94 31q0 -17 -12 -28.5t-28 -11.5t-27.5 11.5t-11.5 28.5t11.5 28t27.5 11q17 0 28.5 -11.5t11.5 -27.5z" />
<glyph unicode="&#x22;" horiz-adv-x="243" d="M164 481v219h42l-5 -219h-37zM84 481h-42v219h42v-219z" />
<glyph unicode="#" horiz-adv-x="554" d="M535 462h-133l-37 -169h139l-9 -38h-138l-42 -195h-39l42 195h-131l-42 -195h-39l42 195h-138l9 38h137l37 169h-143l9 38h142l43 200h39l-43 -200h131l43 200h39l-43 -200h134zM232 462l-37 -169h131l37 169h-131z" />
<glyph unicode="$" horiz-adv-x="383" d="M211 -102h-38v102q-90 0 -159 39v50q74 -48 159 -48v292q-44 26 -80 51q-41 30 -60 59t-19 80q0 104 93 155q26 14 66 21v89h38v-88q76 0 127 -21v-50q-49 29 -127 29v-296q90 -49 125 -91q35 -41 35 -97q0 -107 -92 -152q-27 -13 -68 -20v-104zM61 529q0 -39 14 -63 t42 -46q20 -15 56 -36v273q-80 -12 -105 -81q-7 -20 -7 -47zM211 42q51 9 82 40t31 83q0 39 -14.5 62.5t-43.5 46.5q-18 14 -55 36v-268z" />
<glyph unicode="%" horiz-adv-x="757" d="M188 356q-58 0 -96 29t-55 77q-12 38 -12 71q0 130 100 169q31 12 67 12q112 0 148 -104q12 -38 12 -76q0 -59 -26 -101.5t-71 -62.5q-31 -14 -67 -14zM307 535q0 64 -29.5 101.5t-86.5 37.5q-60 0 -90.5 -38.5t-30.5 -103.5q0 -96 69 -127q21 -10 49 -10q85 0 111 83 q8 27 8 57zM188 -16h-48l422 715h46zM570 -12q-115 0 -151 105q-11 35 -11 72q0 129 100 169q30 12 67 12q58 0 95 -28.5t53 -76.5q11 -35 11 -75q0 -120 -96 -164q-31 -14 -68 -14zM690 167q0 65 -29 102t-87 37q-86 0 -112 -83q-9 -27 -9 -59q0 -96 68 -127q21 -10 50 -10 q59 0 89 38.5t30 101.5z" />
<glyph unicode="&#x26;" horiz-adv-x="655" d="M25 176q0 133 163 207q-80 92 -80 167q0 68 49 115t124 47q104 0 139 -85q11 -27 11 -56q0 -98 -93 -160q-34 -23 -75 -41q59 -63 215 -212q59 88 64 212h47q-3 -130 -81 -243q9 -9 134 -128l-70 1l-94 92q-98 -104 -234 -104q-76 0 -128.5 29.5t-75.5 83.5 q-15 35 -15 75zM383 565q0 73 -65 98q-21 8 -42 8q-83 0 -112 -75q-8 -20 -8 -47q0 -63 75 -147q84 37 119 75q33 36 33 88zM448 122q-164 158 -229 229q-146 -65 -146 -172q0 -104 102 -139q35 -11 73 -11q112 0 200 93z" />
<glyph unicode="'" horiz-adv-x="113" d="M80 481h-42v219h42v-219z" />
<glyph unicode="(" horiz-adv-x="225" d="M15 266q0 263 150 434h48q-153 -176 -153 -433q0 -244 151 -426h-48q-148 172 -148 425z" />
<glyph unicode=")" horiz-adv-x="225" d="M166 267q0 257 -153 433h48q149 -170 149 -434q0 -253 -148 -425h-47q151 182 151 426z" />
<glyph unicode="*" horiz-adv-x="361" d="M166 700h38v-158l132 50l14 -42l-143 -37l97 -130l-37 -25l-85 135l-87 -135l-36 25l97 130l-144 37l12 42l142 -50v158z" />
<glyph unicode="+" horiz-adv-x="447" d="M245 271v-201h-41v201h-202v41h202v201h41v-201h200v-41h-200z" />
<glyph unicode="," horiz-adv-x="138" d="M47 -121h-38l74 232h49z" />
<glyph unicode="-" horiz-adv-x="345" d="M39 271v44h267v-44h-267z" />
<glyph unicode="." horiz-adv-x="135" d="M108 31q0 -17 -12 -28.5t-28 -11.5t-27.5 11.5t-11.5 28.5t11.5 28t27.5 11q17 0 28.5 -11.5t11.5 -27.5z" />
<glyph unicode="/" horiz-adv-x="389" d="M47 -116h-45l338 816h47z" />
<glyph unicode="0" horiz-adv-x="481" d="M235 -12q-99 0 -152 89q-54 90 -54 258q0 187 57 282t164 95q202 0 202 -359q0 -177 -57 -272q-56 -93 -160 -93zM246 671q-80 0 -125 -83t-45 -247q0 -150 42 -231q43 -81 123 -81q79 0 121 83q43 82 43 234q0 325 -159 325z" />
<glyph unicode="1" horiz-adv-x="255" d="M171 0v666l-171 -61v45l216 75v-725h-45z" />
<glyph unicode="2" horiz-adv-x="445" d="M383 527q0 70 -37.5 107t-108.5 37q-93 0 -175 -73v53q79 61 181 61q134 0 174 -105q13 -36 13 -73q0 -62 -21.5 -105t-67.5 -99q-27 -33 -94 -106l-171 -181v-2h350v-41h-400v48l191 203q103 109 134 161q32 53 32 115z" />
<glyph unicode="3" horiz-adv-x="417" d="M319 536q0 65 -36 100t-103 35t-138 -46v48q81 39 145 39q127 0 167 -97q13 -33 13 -67q0 -142 -137 -181v-2q55 -6 94 -34t56 -73q12 -30 12 -66q0 -91 -64 -148q-63 -56 -164 -56q-80 0 -150 37v51q78 -47 151 -47q129 0 168 93q12 28 12 63q0 81 -57.5 119.5 t-154.5 38.5h-53v41h47q90 0 141 37t51 115z" />
<glyph unicode="4" horiz-adv-x="479" d="M370 198v-198h-45v198h-323v38l323 464h45v-461h93v-41h-93zM325 571q0 43 2 63h-2q-14 -26 -25 -42l-245 -353h270v332z" />
<glyph unicode="5" horiz-adv-x="401" d="M89 410q54 4 75 4q107 0 166 -52t59 -154q0 -154 -134 -204q-42 -16 -100 -16q-78 0 -130 26v52q65 -37 134 -37q130 0 170 102q13 34 13 71q0 171 -195 171q-80 0 -103 -17v344h315v-41h-270v-249z" />
<glyph unicode="6" horiz-adv-x="461" d="M298 671q-103 0 -165 -99q-60 -97 -60 -255h2q51 121 175 121q84 0 138 -63q53 -62 53 -153q0 -78 -34 -134.5t-91 -82.5q-37 -17 -84 -17q-97 0 -151 82q-54 83 -54 237q0 287 156 376q52 29 116 29q56 0 102 -17v-48q-49 24 -103 24zM240 397q-66 0 -115 -53 q-46 -50 -46 -115q0 -64 24.5 -112t67.5 -72q28 -16 65 -16q68 0 113 52q45 54 45 132q0 128 -90 171q-27 13 -64 13z" />
<glyph unicode="7" horiz-adv-x="433" d="M4 659v41h422v-12l-280 -688h-49l272 659h-365z" />
<glyph unicode="8" horiz-adv-x="464" d="M51 542q0 59 31.5 98.5t82.5 58.5q33 13 77 13q118 0 160 -95q13 -33 13 -64q0 -119 -142 -185v-2q165 -61 165 -194q0 -129 -126 -171q-39 -13 -94 -13q-65 0 -110.5 28t-66.5 77q-14 34 -14 72q0 131 157 199v2q-133 64 -133 176zM368 548q0 88 -79 115q-21 8 -54 8 q-44 0 -77.5 -20.5t-49.5 -53.5q-10 -21 -10 -48q0 -105 132 -160q138 55 138 159zM74 167q0 -48 25.5 -81t67.5 -47q29 -10 65 -10q113 0 148 83q11 27 11 54q0 94 -92 145q-39 20 -72 31q-83 -33 -118 -73q-35 -38 -35 -102z" />
<glyph unicode="9" horiz-adv-x="461" d="M161 29q111 0 169 88t58 262h-2q-48 -113 -172 -113q-86 0 -140 61q-53 60 -53 154q0 79 34 133.5t93 80.5q40 17 84 17q95 0 148 -79q55 -83 55 -238q0 -297 -157 -380q-51 -27 -118 -27q-52 0 -102 18v49q53 -26 103 -26zM226 671q-69 0 -114 -52q-44 -51 -44 -129 q0 -129 93 -170q31 -13 64 -13q65 0 111 48t46 112q0 140 -93 189q-29 15 -63 15z" />
<glyph unicode=":" horiz-adv-x="123" d="M102 470q0 -16 -12 -28t-28 -12t-27.5 11.5t-11.5 28.5q0 16 11.5 27.5t27.5 11.5q17 0 28.5 -11.5t11.5 -27.5zM102 31q0 -17 -12 -28.5t-28 -11.5t-27.5 11.5t-11.5 28.5t11.5 28t27.5 11q17 0 28.5 -11.5t11.5 -27.5z" />
<glyph unicode=";" horiz-adv-x="143" d="M138 470q0 -16 -12 -28t-28 -12t-27.5 11.5t-11.5 28.5q0 16 11.5 27.5t27.5 11.5q17 0 28.5 -11.5t11.5 -27.5zM44 -121h-38l73 232h50z" />
<glyph unicode="&#x3c;" horiz-adv-x="444" d="M0 283v9l407 228v-46l-330 -185v-2l330 -163v-47z" />
<glyph unicode="=" horiz-adv-x="488" d="M39 366v41h443v-41h-443zM39 177v41h443v-41h-443z" />
<glyph unicode="&#x3e;" horiz-adv-x="443" d="M37 77v47l331 163v2l-331 185v46l406 -228v-9z" />
<glyph unicode="?" horiz-adv-x="368" d="M157 194q-12 29 -12 72q0 57 50 109q9 9 30.5 28.5t33 31.5t25.5 32t21 41q7 20 7 45q0 55 -33.5 85t-89.5 30q-100 0 -146 -61l-38 21q51 81 184 84q116 0 157 -89q13 -27 13 -65q0 -37 -16 -70.5t-29.5 -48t-43.5 -44.5q-9 -9 -23.5 -22.5t-19.5 -18.5 q-15 -15 -22.5 -24t-13.5 -26t-6 -38q0 -34 12 -72h-40zM214 31q0 -17 -12 -28.5t-28 -11.5t-27 11.5t-11 28.5t11 28t27 11q17 0 28.5 -11t11.5 -28z" />
<glyph unicode="@" horiz-adv-x="830" d="M524 466q1 20 5 58h43l-25 -285q0 -106 75 -106q61 0 100 62q39 59 39 156q0 114 -51.5 189t-142.5 108q-64 23 -142 23q-155 0 -253 -107t-98 -263q0 -161 93 -256q94 -96 254 -96q123 0 208 43l24 -29q-121 -55 -236 -55q-175 0 -283 110q-107 109 -107 283 q0 175 115 293t288 118q170 0 274 -101t104 -255q0 -84 -29.5 -148.5t-81.5 -95.5q-34 -20 -72 -20q-109 0 -117 116h-2q-44 -116 -143 -116q-105 0 -137 106q-11 35 -11 74q0 84 32 146.5t88 92.5q38 20 82 20q57 0 91 -41q9 -10 14 -24h2zM513 374q0 54 -24 85t-73 31 q-71 0 -112 -59q-42 -59 -42 -155q0 -102 61 -133q19 -10 45 -10q66 0 106 69q39 67 39 172z" />
<glyph unicode="A" d="M531 0l-80 218h-304l-80 -218h-53l264 700h46l261 -700h-54zM316 586q-6 16 -16 53h-2q-8 -33 -16 -52l-118 -325h270z" />
<glyph unicode="B" horiz-adv-x="462" d="M403 538q0 -64 -33.5 -107.5t-89.5 -61.5v-2q111 -11 146 -103q11 -30 11 -64q0 -70 -33.5 -117t-89.5 -68q-39 -15 -87 -15h-188v700h184q62 0 105.5 -25.5t62.5 -70.5q12 -30 12 -66zM87 656v-271h98q118 0 156 84q12 27 12 61q0 126 -149 126h-117zM217 44 q81 0 125.5 38t44.5 114q0 145 -197 145h-103v-297h130z" />
<glyph unicode="C" horiz-adv-x="582" d="M544 46q-79 -58 -193 -58q-148 0 -237 99q-88 98 -88 256q0 128 51.5 215.5t145.5 127.5q61 26 141 26q110 0 190 -62l-25 -40q-70 58 -174 58q-123 0 -200 -89q-79 -91 -79 -231q0 -108 42 -183.5t119 -109.5q52 -23 113 -23q100 0 170 52z" />
<glyph unicode="D" horiz-adv-x="595" d="M214 700q173 0 264.5 -85.5t91.5 -254.5q0 -160 -97 -259q-99 -101 -269 -101h-165v700h175zM87 656v-612h110q237 0 302 179q21 59 21 135q0 298 -313 298h-120z" />
<glyph unicode="E" horiz-adv-x="383" d="M39 0v700h327v-44h-279v-281h259v-44h-259v-287h295v-44h-343z" />
<glyph unicode="F" horiz-adv-x="365" d="M86 656v-286h259v-44h-259v-326h-48v700h327v-44h-279z" />
<glyph unicode="G" horiz-adv-x="597" d="M568 67q-50 -39 -99.5 -59t-117.5 -20q-148 0 -237 99q-88 98 -88 256q0 128 51.5 215.5t145.5 127.5q61 26 141 26q110 0 190 -62l-25 -40q-50 35 -104 49q-86 21 -158.5 -7t-118.5 -85q-72 -89 -72 -219q0 -108 42 -183.5t119 -109.5q52 -23 113 -23q102 0 170 52v220 h-166v44h214v-281z" />
<glyph unicode="H" horiz-adv-x="573" d="M487 0v336h-401v-336h-48v700h48v-320h401v320h48v-700h-48z" />
<glyph unicode="I" horiz-adv-x="126" d="M86 700v-700h-48v700h48z" />
<glyph unicode="J" horiz-adv-x="268" d="M234 140q0 -253 -176 -253q-26 0 -58 8l18 43q15 -7 41 -7q67 0 97 51t30 159v559h48v-560z" />
<glyph unicode="K" horiz-adv-x="486" d="M85 351v-351h-48v700h48v-330h2q3 7 13 17l283 313h63l-307 -339l326 -361h-68l-298 335q-9 9 -12 16h-2z" />
<glyph unicode="L" horiz-adv-x="366" d="M37 0v700h48v-656h281v-44h-329z" />
<glyph unicode="M" horiz-adv-x="727" d="M644 0v592l-271 -592h-16l-275 602v-602h-45v700h45l261 -564q2 -5 22 -58h3l6 16q0 1 4 12q1 2 4.5 13.5t7.5 20.5l257 560h43v-700h-46z" />
<glyph unicode="N" horiz-adv-x="603" d="M84 610q1 -10 1 -31v-579h-48v700h37l414 -561q15 -21 30 -45h2q-2 40 -2 59v547h48v-700h-34l-417 566q-11 13 -23 34l-6 10h-2z" />
<glyph unicode="O" horiz-adv-x="706" d="M351 -12q-148 0 -237 99q-88 98 -88 256q0 128 51.5 215.5t145.5 127.5q61 26 141 26q141 0 229 -97q88 -96 88 -254q0 -129 -51 -218.5t-144 -128.5q-63 -26 -135 -26zM355 668q-123 0 -200 -89q-79 -91 -79 -231q0 -108 42 -183.5t119 -109.5q52 -23 113 -23 q102 0 167.5 50t93.5 136q20 62 20 135q0 110 -42 185t-120 108q-53 22 -114 22z" />
<glyph unicode="P" horiz-adv-x="431" d="M205 700q107 0 164.5 -48.5t57.5 -147.5q0 -78 -37.5 -130t-101.5 -76q-46 -17 -103 -17h-101v-281h-48v700h169zM184 325q93 0 143 43.5t50 129.5q0 158 -181 158h-112v-331h100z" />
<glyph unicode="Q" horiz-adv-x="694" d="M681 361q0 -216 -139 -316l92 -71l-26 -28l-101 77q-67 -35 -156 -35q-148 0 -237 99q-88 98 -88 256q0 128 51.5 215.5t145.5 127.5q61 26 141 26q141 0 229 -97q88 -96 88 -254zM505 74q126 79 126 279q0 110 -42 185t-120 108q-53 22 -114 22q-123 0 -200 -89 q-79 -91 -79 -231q0 -108 42 -183.5t119 -109.5q52 -23 113 -23q67 0 118 22l-53 41l26 29z" />
<glyph unicode="R" horiz-adv-x="472" d="M84 312v-312h-48v700h194q141 0 185 -108q14 -34 14 -74q0 -116 -96 -168q-32 -17 -69 -24v-2l185 -324h-55l-176 312h-134zM379 513q0 70 -43.5 106.5t-120.5 36.5h-131v-300h121q121 0 161 92q13 31 13 65z" />
<glyph unicode="S" horiz-adv-x="415" d="M180 33q166 0 166 128q0 54 -29 86q-17 19 -46 39q-16 11 -78 48q-104 60 -134 104q-29 43 -29 96q0 75 58 126q59 52 154 52q91 -5 154 -56l-30 -36q-61 48 -131 48q-52 0 -89.5 -20.5t-54.5 -56.5q-10 -23 -10 -51q0 -55 27 -85q18 -20 46 -38q48 -31 78 -49 q56 -32 82 -52q41 -31 61.5 -62.5t20.5 -83.5q0 -128 -126 -168q-40 -13 -98 -13q-91 5 -154 56l30 36q60 -48 132 -48z" />
<glyph unicode="T" horiz-adv-x="461" d="M255 656v-656h-48v656h-202v44h452v-44h-202z" />
<glyph unicode="U" horiz-adv-x="549" d="M518 280q0 -292 -249 -292q-237 0 -237 281v431h48v-424q0 -244 198 -244q192 0 192 237v431h48v-420z" />
<glyph unicode="V" horiz-adv-x="588" d="M305 0h-36l-256 700h54l203 -564q12 -32 18 -66h2q4 22 20 67l215 563h52z" />
<glyph unicode="W" horiz-adv-x="888" d="M662 0h-40l-156 527q-11 38 -13 66h-2q-2 -22 -15 -65l-166 -528h-41l-208 700h55l159 -561q11 -39 15 -62h2q1 8 18 62l172 561h25l158 -561q12 -42 16 -62h2q4 19 7 31l164 592h53z" />
<glyph unicode="X" horiz-adv-x="549" d="M465 0l-161 267q-18 30 -26 49h-3q-11 -23 -27 -49l-165 -267h-58l222 353l-208 347h58l156 -263q5 -9 14 -25.5t12 -21.5h2q33 60 97.5 168.5t83.5 141.5h57l-210 -346l214 -354h-58z" />
<glyph unicode="Y" horiz-adv-x="508" d="M273 0h-48v265l-214 435h54l163 -337q18 -41 22 -52h2q4 10 24 51l171 338h52l-226 -434v-266z" />
<glyph unicode="Z" horiz-adv-x="519" d="M502 44v-44h-492v15l424 641h-390v44h465v-13l-426 -643h419z" />
<glyph unicode="[" horiz-adv-x="190" d="M35 -159v859h154v-41h-109v-777h109v-41h-154z" />
<glyph unicode="\" horiz-adv-x="389" d="M342 -116l-340 816h47l338 -816h-45z" />
<glyph unicode="]" horiz-adv-x="191" d="M1 -159v41h110v777h-110v41h155v-859h-155z" />
<glyph unicode="^" horiz-adv-x="420" d="M361 343l-150 299h-2l-150 -299h-47l188 369h20l188 -369h-47z" />
<glyph unicode="_" horiz-adv-x="484" d="M35 -131v44h415v-44h-415z" />
<glyph unicode="`" horiz-adv-x="175" d="M125 580l-121 160h51l114 -160h-44z" />
<glyph unicode="a" horiz-adv-x="427" d="M233 512q81 0 121.5 -49t40.5 -138v-325h-45v79q-14 -35 -66 -63t-107 -28q-53 0 -90 23t-53 62q-11 27 -11 56q4 147 194 161q64 4 133 -9v46q-6 144 -121 144q-90 0 -155 -59l-28 29q68 71 187 71zM70 131q0 -71 65 -95q20 -7 47 -7q72 0 117 36q46 38 50 62v117 q-89 18 -172 0q-65 -15 -92 -57q-15 -23 -15 -56z" />
<glyph unicode="b" horiz-adv-x="478" d="M69 89v-89h-45v740h45v-343q30 64 97 98q35 17 79.5 16t80.5 -18q83 -39 119 -139q18 -50 18 -105q0 -91 -35 -154t-100 -90q-40 -17 -91 -17q-113 0 -166 101h-2zM69 130q37 -49 74.5 -75t97.5 -26q123 0 162 125q13 39 13 94q0 93 -56 158q-55 64 -129 64 q-39 -3 -71.5 -20.5t-48.5 -34.5t-42 -51v-234z" />
<glyph unicode="c" horiz-adv-x="430" d="M402 31q-58 -43 -140 -43q-85 0 -140.5 41.5t-80.5 112.5q-16 47 -16 105q0 93 37.5 156.5t105.5 90.5q45 18 99 18q80 0 136 -40l-24 -35q-44 34 -114 34t-115 -35t-65 -95q-13 -40 -13 -95q0 -153 111 -202q36 -15 80 -15q70 0 117 37z" />
<glyph unicode="d" horiz-adv-x="478" d="M230 -12q-101 0 -162 68q-64 70 -64 193q0 113 66 189q65 76 160 73q70 -3 121 -50q30 -29 47 -64v343h45v-740h-45v89h-2q-54 -101 -166 -101zM398 364q-26 34 -42 51t-48.5 34.5t-71.5 20.5q-74 0 -129 -64q-56 -65 -56 -158q0 -158 105 -205q61 -27 127 -6 q60 19 115 93v234z" />
<glyph unicode="e" horiz-adv-x="464" d="M71 248q0 -157 104 -204q33 -15 75 -15q84 0 149 53l21 -34q-84 -60 -180 -60q-99 0 -156 69q-60 71 -60 196q0 109 63 184t162 75q140 0 180 -142q12 -45 12 -102v-20h-370zM247 471q-110 0 -154 -104q-14 -31 -20 -78h322q-5 132 -88 170q-27 12 -60 12z" />
<glyph unicode="f" horiz-adv-x="310" d="M234 707q-92 0 -92 -124v-83h132v-41h-132v-459h-45v459h-90v41h90v87q0 116 85 151q24 10 54 10q33 0 71 -19l-18 -36q-19 14 -55 14z" />
<glyph unicode="g" horiz-adv-x="486" d="M455 37q0 -209 -141 -256q-47 -16 -112 -16q-71 0 -149 38l30 36q49 -33 120 -33q207 0 207 219v65q-62 -102 -182 -102q-95 0 -151 66q-58 67 -58 187q0 91 36 155.5t99 95.5q40 20 94 20q110 0 162 -91v79h45v-463zM249 471q-83 0 -133 -62q-51 -63 -51 -164 q0 -155 99 -202q29 -14 69 -14q114 0 177 106v239q-70 97 -161 97z" />
<glyph unicode="h" horiz-adv-x="429" d="M253 512q85 0 125.5 -53.5t40.5 -148.5v-310h-44v300q0 85 -30.5 128t-103.5 43q-93 0 -161 -119v-352h-45v740h45v-330q62 102 173 102z" />
<glyph unicode="i" horiz-adv-x="99" d="M87 664q0 -16 -11 -27t-27 -11q-24 0 -34 24t8 40q11 10 26 10q16 0 27 -10t11 -26zM27 0v500h45v-500h-45z" />
<glyph unicode="j" horiz-adv-x="283" d="M263 664q0 -16 -11 -27t-27 -11q-15 0 -26 11t-11 27q0 15 11 25.5t26 10.5q16 0 27 -10t11 -26zM71 -235q-49 0 -86 26l15 38q40 -23 76 -23q127 0 127 200v494h45v-486q0 -249 -177 -249z" />
<glyph unicode="k" horiz-adv-x="386" d="M80 247v-247h-45v740h45v-477h2l227 237h58l-238 -242l257 -258h-65l-239 247h-2z" />
<glyph unicode="l" horiz-adv-x="117" d="M79 0h-45v740h45v-740z" />
<glyph unicode="m" horiz-adv-x="739" d="M384 392q10 -35 10 -71v-321h-45v304q0 167 -127 167q-91 -7 -142 -101v-370h-45v500h45v-83q32 50 70 72q40 23 84 23q64 0 111 -51q19 -21 28 -41q31 47 69 70q37 22 83 22q61 0 107 -46q53 -55 53 -145v-321h-45v304q0 167 -127 167q-80 -8 -129 -79z" />
<glyph unicode="n" horiz-adv-x="451" d="M394 321v-321h-45v304q0 167 -127 167q-91 -7 -142 -101v-370h-45v500h45v-83q32 50 70 72q40 23 84 23q61 0 107 -46q53 -55 53 -145z" />
<glyph unicode="o" horiz-adv-x="523" d="M262 -12q-85 0 -140.5 41.5t-80.5 112.5q-16 47 -16 105q0 93 37.5 156.5t105.5 90.5q45 18 99 18q84 0 138 -41t77 -112q16 -48 16 -110q0 -89 -36.5 -151.5t-101.5 -90.5q-42 -19 -98 -19zM451 250q0 104 -46.5 162.5t-139.5 58.5q-70 0 -115 -35t-65 -95 q-13 -40 -13 -95q0 -153 111 -202q36 -15 80 -15q137 0 176 128q12 41 12 93z" />
<glyph unicode="p" horiz-adv-x="478" d="M237 513q101 0 163 -69q63 -69 63 -192q0 -113 -66 -189q-65 -77 -160 -74q-70 3 -121 50q-29 28 -47 65v-335h-45v731h45v-88h2q53 101 166 101zM69 137q20 -26 31.5 -39t32 -30.5t44.5 -26.5t54 -11q74 0 129 65q56 65 56 158q0 157 -104 204q-32 15 -71 15 q-60 0 -97 -26.5t-75 -75.5v-233z" />
<glyph unicode="q" horiz-adv-x="478" d="M418 412v88h45v-731h-45v335q-30 -66 -97 -99q-35 -17 -79.5 -16t-80.5 19q-83 39 -119 139q-18 48 -18 105q0 91 35 153.5t100 89.5q42 18 91 18q112 0 166 -101h2zM418 370q-37 49 -75 75.5t-97 26.5q-122 0 -162 -126q-13 -39 -13 -93q0 -93 56 -158q55 -65 129 -65 q30 2 54 11t44.5 26.5t32 30.5t31.5 39v233z" />
<glyph unicode="r" horiz-adv-x="270" d="M271 453q-23 16 -57 16q-86 0 -135 -99v-370h-44v500h44v-79q33 48 65 68q35 21 77 21q22 0 64 -14z" />
<glyph unicode="s" horiz-adv-x="360" d="M167 29q118 0 118 96q0 32 -26 56q-20 19 -76 45.5t-69 34.5q-69 44 -69 115q0 92 99 126q29 10 63 10q63 0 127 -37l-17 -40q-57 36 -115 36q-76 0 -102 -55q-8 -18 -8 -37q0 -32 11.5 -49.5t37.5 -32.5q8 -5 74 -37t88 -55q29 -31 29 -80q0 -94 -98 -127 q-30 -10 -70 -10q-74 0 -141 49l20 39q35 -31 95 -44q16 -3 29 -3z" />
<glyph unicode="t" horiz-adv-x="278" d="M141 129q0 -50 15 -74t56 -24q29 0 47 11l13 -35q-34 -17 -65 -17q-111 0 -111 133v336h-90v41h90v145h45v-145h131v-41h-131v-330z" />
<glyph unicode="u" horiz-adv-x="450" d="M76 222q0 -94 30.5 -143.5t109.5 -49.5q94 0 155 107v364h45v-500h-45v91q-69 -104 -155 -104q-98 0 -141.5 56.5t-43.5 167.5v289h45v-278z" />
<glyph unicode="v" horiz-adv-x="458" d="M247 0h-41l-193 500h50l149 -398q9 -26 15 -52h2q4 25 14 50l154 400h49z" />
<glyph unicode="w" horiz-adv-x="684" d="M490 59q0 14 8 42l119 399h46l-155 -500h-42l-109 377q-4 13 -8 42h-2q-6 -29 -10 -41l-122 -378h-42l-151 500h50l116 -399q5 -16 7 -42h4q1 11 9 42l127 399h31l113 -399q3 -10 7 -42h4z" />
<glyph unicode="x" horiz-adv-x="441" d="M246 245l163 -245h-57l-132 211h-2l-18 -28q-1 -1 -8 -13l-110 -170h-55l167 244l-164 256h53l111 -179q17 -26 26 -43h2q20 34 43.5 71t52.5 81.5t45 69.5h53z" />
<glyph unicode="y" horiz-adv-x="463" d="M69 -235q-22 0 -39 7l14 41q3 -3 27 -3q60 0 95 83l46 111l-189 496h50l151 -407l12 -38q33 88 97.5 251.5t76.5 193.5h49l-244 -602q-20 -50 -42 -80.5t-57 -44.5q-22 -8 -47 -8z" />
<glyph unicode="z" horiz-adv-x="437" d="M410 41v-41h-396v17l332 442h-308v41h384v-12l-335 -447h323z" />
<glyph unicode="{" horiz-adv-x="219" d="M205 -159q-65 2 -95 36.5t-30 105.5v145q0 117 -76 127v31q76 10 76 119v153q0 71 30 105.5t95 36.5v-41q-46 -2 -62 -30t-16 -85v-143q0 -109 -71 -130v-2q71 -23 71 -137v-135q0 -90 42 -108q13 -5 36 -7v-41z" />
<glyph unicode="|" horiz-adv-x="118" d="M35 -235v1000h46v-1000h-46z" />
<glyph unicode="}" horiz-adv-x="218" d="M14 700q65 -3 95 -37.5t30 -104.5v-153q0 -108 76 -119v-31q-76 -11 -76 -127v-145q0 -70 -30 -104.5t-95 -37.5v41q46 2 62 30t16 85v135q0 115 71 137v2q-71 22 -71 130v143q0 92 -43 109q-10 4 -35 6v41z" />
<glyph unicode="~" horiz-adv-x="466" d="M438 347q-3 -54 -32 -86t-81 -32q-45 0 -98 41t-86 41q-69 0 -75 -77h-38q3 54 32.5 86t81.5 32q46 0 95 -39q35 -27 51 -36q16 -8 39 -8q65 0 74 78h37z" />
<glyph unicode="&#xa1;" horiz-adv-x="104" d="M90 469q0 -17 -11 -28t-28 -11t-28.5 11.5t-11.5 27.5q0 17 11.5 28.5t28.5 11.5q16 0 27.5 -11.5t11.5 -28.5zM26 -199v503h47v-503h-47z" />
<glyph unicode="&#xa2;" horiz-adv-x="397" d="M264 -28h-45v97q-73 6 -122 47.5t-71 107.5q-14 42 -14 97q0 161 121 236q38 23 86 32v97h45v-94q57 0 123 -30l-13 -44q-51 31 -110 33v-441q63 4 108 39l12 -42q-58 -32 -120 -38v-97zM59 324q0 -135 92 -191q31 -19 68 -23v438q-114 -20 -149 -142q-11 -39 -11 -82z " />
<glyph unicode="&#xa3;" horiz-adv-x="441" d="M309 671q-66 0 -98 -45t-32 -123v-136h150v-44h-150v-86q0 -78 -30.5 -127.5t-86.5 -92.5l34 24h341v-41h-424v20q88 36 113 138q8 34 8 62v103h-112v44h112v142q0 69 27.5 117.5t76.5 70.5q33 15 73 15q51 0 102 -20l-14 -43q-43 22 -90 22z" />
<glyph unicode="&#xa4;" horiz-adv-x="486" d="M243 167q-69 0 -118 42l-65 -66l-30 30l67 64q-41 56 -41 117q0 67 41 117l-67 65l30 30l65 -66q55 41 118 41q65 0 117 -41l67 66l30 -30l-68 -65q41 -50 41 -117q0 -64 -41 -117l68 -64l-30 -30l-66 66q-53 -42 -118 -42zM244 500q-48 0 -83 -25t-52 -64 q-12 -27 -12 -56q0 -59 44 -103t102 -44q61 0 103 44q43 45 43 103q0 61 -44 103t-101 42z" />
<glyph unicode="&#xa5;" horiz-adv-x="468" d="M438 364v-41h-182v-120h182v-41h-182v-162h-45v162h-182v41h182v120h-182v41h167l-184 336h50l150 -279q20 -37 23 -47h2q11 34 21 49l152 277h47l-187 -336h168z" />
<glyph unicode="&#xa6;" horiz-adv-x="107" d="M35 349v416h46v-416h-46zM35 -235v416h46v-416h-46z" />
<glyph unicode="&#xa7;" horiz-adv-x="330" d="M131 9q50 0 79 22.5t29 66.5q0 43 -40 74q-13 10 -44 25q-47 23 -71 40q-34 24 -49.5 50.5t-15.5 72.5q0 85 79 125q-60 41 -60 107q0 95 88 126q27 10 63 10q59 0 108 -22l-13 -43q-42 24 -96 24q-103 0 -103 -92q0 -40 26 -64q18 -17 40 -28q29 -16 65 -32 q99 -45 99 -136q0 -79 -75 -138q46 -34 46 -98q0 -87 -93 -121q-27 -10 -63 -10q-46 0 -119 31l13 41q56 -31 107 -31zM204 223q32 24 48 47.5t16 64.5q0 36 -15.5 55t-47.5 38q-22 13 -69 34q-70 -31 -70 -99q0 -41 17.5 -64t52.5 -43q30 -17 68 -33z" />
<glyph unicode="&#xa8;" horiz-adv-x="296" d="M266 615q0 -15 -11 -25t-26 -10q-14 0 -24 10t-10 25q0 14 10 24t24 10q15 0 26 -10t11 -24zM103 615q0 -15 -10.5 -25t-25.5 -10q-14 0 -24.5 10t-10.5 25q0 14 10 24t24 10q15 0 26 -10t11 -24z" />
<glyph unicode="&#xa9;" horiz-adv-x="776" d="M389 -12q-153 0 -259 105t-106 256q0 152 107 257q107 106 257 106q151 0 258 -106t107 -256q0 -149 -107 -256q-106 -106 -257 -106zM388 675q-133 0 -229 -96t-96 -230q0 -132 95 -229q95 -95 230 -95q136 0 230 96q96 96 96 228q0 134 -96 230t-230 96zM403 97 q-101 0 -172 69q-70 68 -70 171q0 91 40.5 153t110.5 90q45 18 99 18q63 0 129 -33l-17 -35q-52 28 -120 28q-67 0 -113 -34t-69 -90q-15 -39 -15 -87q0 -71 34 -121t90 -73q36 -15 78 -15q64 0 117 33l17 -33q-77 -41 -139 -41z" />
<glyph unicode="&#xaa;" horiz-adv-x="334" d="M44 668q70 42 137 42q121 0 121 -134v-226h-44v70q-31 -56 -88 -73q-15 -5 -38 -5q-76 0 -101 60q-8 19 -8 39q0 73 77 107q71 30 158 14q0 109 -81 109q-64 0 -124 -45zM73 442q0 -61 68 -61q77 0 117 74v71q-4 0 -29 3.5t-39 4.5q-113 3 -117 -92z" />
<glyph unicode="&#xab;" horiz-adv-x="387" d="M305 98l-136 164l136 168h55l-137 -168l136 -164h-54zM149 98l-134 164l134 168h56l-138 -168l138 -164h-56z" />
<glyph unicode="&#xac;" horiz-adv-x="479" d="M402 72v199h-401v41h443v-240h-42z" />
<glyph unicode="&#xad;" horiz-adv-x="336" d="M35 271v44h267v-44h-267z" />
<glyph unicode="&#xae;" horiz-adv-x="776" d="M389 -12q-153 0 -259 105t-106 256q0 152 107 257q107 106 257 106q151 0 258 -106t107 -256q0 -149 -107 -256q-106 -106 -257 -106zM388 675q-133 0 -229 -96t-96 -230q0 -132 95 -229q95 -95 230 -95q136 0 230 96q96 96 96 228q0 134 -96 230t-230 96zM300 327v-209 h-45v472h129q117 0 151 -73q11 -24 11 -51q0 -108 -123 -131l140 -217h-51l-128 209h-84zM300 555v-193h95q73 0 97 57q8 19 8 39q0 97 -117 97h-83z" />
<glyph unicode="&#xaf;" horiz-adv-x="415" d="M35 801v44h415v-44h-415z" />
<glyph unicode="&#xb0;" horiz-adv-x="293" d="M148 454q-40 0 -69.5 21.5t-44.5 54.5q-10 21 -10 48q0 78 75 112q21 10 47 10q40 0 69.5 -21t44.5 -54q10 -21 10 -47q0 -40 -21 -69.5t-53 -44.5q-21 -10 -48 -10zM148 663q-54 0 -77 -52q-7 -14 -7 -33q0 -57 50 -80q14 -7 32 -7q53 0 76 54q7 19 7 33q0 57 -50 78 q-17 7 -31 7z" />
<glyph unicode="&#xb1;" horiz-adv-x="448" d="M245 309v-201h-41v201h-201v41h201v201h41v-201h201v-41h-201zM3 0v41h443v-41h-443z" />
<glyph unicode="&#xb2;" horiz-adv-x="329" d="M48 818q58 38 111 38q84 0 111 -64q8 -17 8 -45q0 -39 -21 -78q-23 -40 -86 -101l-94 -91v-2h202v-44h-253v49l117 114q22 21 47 50q16 18 23 28t13.5 28.5t6.5 40.5q0 75 -77 75q-52 0 -108 -48v50z" />
<glyph unicode="&#xb3;" horiz-adv-x="329" d="M171 646q38 -9 61.5 -36t23.5 -68q0 -84 -79 -114q-25 -9 -58 -9q-51 0 -94 23v47q49 -31 95 -31q43 0 68.5 22t25.5 62q0 82 -115 82h-34v39h30q105 0 105 84q0 67 -75 67q-34 0 -84 -26v44q46 22 93 22q78 0 102 -60q7 -17 7 -41q0 -79 -72 -105v-2z" />
<glyph unicode="&#xb4;" horiz-adv-x="175" d="M50 580h-44l114 160h51z" />
<glyph unicode="&#xb5;" horiz-adv-x="433" d="M80 222q0 -93 30.5 -143t108.5 -50q109 0 145 111q11 36 11 77v283h44v-500h-44v91h-2q-51 -103 -162 -103q-86 0 -128 60h-3v-239h-45v691h45v-278z" />
<glyph unicode="&#xb6;" horiz-adv-x="401" d="M318 658v-658h-42v658h-96v-658h-43v441q-80 0 -112 78q-9 24 -9 51q0 45 21 76t56 45q23 9 48 9h241v-42h-64z" />
<glyph unicode="&#xb7;" horiz-adv-x="127" d="M104 345q0 -17 -12 -28.5t-28 -11.5t-27.5 11.5t-11.5 28.5t11.5 28t27.5 11q17 0 28.5 -11.5t11.5 -27.5z" />
<glyph unicode="&#xb8;" horiz-adv-x="202" d="M67 -212q-13 0 -39 2v36q24 -3 42 -3q78 0 78 45q0 42 -70 42q-12 0 -32 -2v92h36v-57q109 0 109 -72q0 -83 -124 -83z" />
<glyph unicode="&#xb9;" horiz-adv-x="329" d="M255 431h-230v40h95v333l-102 -34v43l144 46v-388h93v-40z" />
<glyph unicode="&#xba;" horiz-adv-x="389" d="M195 340q-60 0 -100.5 30t-57.5 80q-12 33 -12 74q0 132 103 173q34 13 70 13q118 0 155 -108q12 -34 12 -77q0 -62 -27 -106t-73 -65q-33 -14 -70 -14zM318 526q0 66 -31 105.5t-90 39.5q-89 0 -117 -86q-9 -27 -9 -62q0 -101 74 -133q21 -10 51 -10q61 0 91.5 39.5 t30.5 106.5z" />
<glyph unicode="&#xbb;" horiz-adv-x="389" d="M239 98h-55l138 168l-138 164h55l136 -164zM85 98h-57l139 168l-139 164h56l135 -164z" />
<glyph unicode="&#xbc;" horiz-adv-x="701" d="M164 285h-42v373l-102 -34v43l144 46v-428zM174 0h-10l383 700h47zM587 0v107h-192v31l188 277h44v-270h54v-38h-54l-33 -107h-7zM587 145v217h-1q-11 -21 -22 -38l-120 -179h143z" />
<glyph unicode="&#xbd;" horiz-adv-x="737" d="M175 0h-48l421 700h47zM718 0h-253v49l117 114q22 21 47 50q15 18 22.5 28.5t14 28.5t6.5 40q0 75 -77 75q-54 0 -108 -48v50q56 38 111 38q82 0 110 -65q9 -19 9 -44q0 -40 -21 -77q-24 -42 -86 -102l-94 -91v-2h202v-44zM164 285h-42v373l-102 -34v43l144 46v-428z" />
<glyph unicode="&#xbe;" horiz-adv-x="714" d="M165 500q38 -9 61.5 -36t23.5 -68q0 -84 -80 -114q-26 -9 -57 -9q-51 0 -94 23v47q49 -31 95 -31q43 0 68.5 22t25.5 62q0 82 -115 82h-34v39h29q105 0 105 84q0 67 -74 67q-34 0 -84 -26v44q46 22 92 22q78 0 102 -60q8 -19 8 -41q0 -79 -72 -105v-2zM186 0h-48l421 700 h46zM599 0v107h-192v31l188 277h44v-270h53v-38h-53l-34 -107h-6zM599 145v217h-1q-11 -21 -22 -38l-120 -179h143z" />
<glyph unicode="&#xbf;" horiz-adv-x="351" d="M209 306q13 -32 13 -72q0 -57 -50 -109q-9 -10 -30 -29t-33 -31t-26 -32t-21 -41q-7 -20 -7 -45q0 -55 33.5 -85t89.5 -30q94 0 144 55l25 -32q-38 -34 -75.5 -50.5t-94.5 -16.5q-115 0 -156 89q-11 24 -12.5 56.5t7.5 59.5q16 49 81 112q17 16 42 41q15 15 22.5 24.5 t14 26t6.5 37.5q0 34 -12 72h39zM152 469q0 17 12 28.5t28 11.5t27.5 -11.5t11.5 -28.5t-11.5 -28t-27.5 -11q-17 0 -28.5 11t-11.5 28z" />
<glyph unicode="&#xc0;" d="M531 0l-80 218h-304l-80 -218h-53l264 700h46l261 -700h-54zM316 586q-6 16 -16 53h-2q-8 -33 -16 -52l-118 -325h270zM337 780l-121 160h51l114 -160h-44z" />
<glyph unicode="&#xc1;" d="M531 0l-80 218h-304l-80 -218h-53l264 700h46l261 -700h-54zM316 586q-6 16 -16 53h-2q-8 -33 -16 -52l-118 -325h270zM261 780h-44l114 160h51z" />
<glyph unicode="&#xc2;" d="M531 0l-80 218h-304l-80 -218h-53l264 700h46l261 -700h-54zM316 586q-6 16 -16 53h-2q-8 -33 -16 -52l-118 -325h270zM376 780l-77 117l-78 -117h-40l108 164h22l107 -164h-42z" />
<glyph unicode="&#xc3;" d="M531 0l-80 218h-304l-80 -218h-53l264 700h46l261 -700h-54zM316 586q-6 16 -16 53h-2q-8 -33 -16 -52l-118 -325h270zM369 824q23 0 34.5 20.5t11.5 50.5h37q0 -48 -23 -78.5t-65 -30.5q-33 0 -74 37q-31 27 -58 27q-49 0 -49 -70h-36q0 74 51 100q18 8 35 8 q35 0 78 -35q18 -15 31 -22t27 -7z" />
<glyph unicode="&#xc4;" d="M531 0l-80 218h-304l-80 -218h-53l264 700h46l261 -700h-54zM316 586q-6 16 -16 53h-2q-8 -33 -16 -52l-118 -325h270zM417 815q0 -15 -11 -25t-26 -10q-14 0 -24 10t-10 25q0 14 10 24t24 10q15 0 26 -10t11 -24zM254 815q0 -15 -10.5 -25t-25.5 -10q-14 0 -24.5 10 t-10.5 25q0 14 10 24t24 10q15 0 26 -10t11 -24z" />
<glyph unicode="&#xc5;" horiz-adv-x="600" d="M202 757q0 61 60 84q18 6 38 6q67 0 91 -53q7 -15 7 -37q0 -63 -64 -85l251 -672h-54l-80 218h-304l-80 -218h-53l254 671q-66 21 -66 86zM363 757q0 26 -17.5 41.5t-45.5 15.5t-45 -15.5t-17 -41.5t17.5 -41.5t44.5 -15.5t45 15.5t18 41.5zM316 586q-6 16 -16 53h-2 q-8 -33 -16 -52l-117 -325h270z" />
<glyph unicode="&#xc7;" horiz-adv-x="582" d="M544 46q-79 -58 -193 -58q-148 0 -237 99q-88 98 -88 256q0 128 51.5 215.5t145.5 127.5q61 26 141 26q110 0 190 -62l-25 -40q-70 58 -174 58q-123 0 -200 -89q-79 -91 -79 -231q0 -108 42 -183.5t119 -109.5q52 -23 113 -23q100 0 170 52zM248 -212q-13 0 -39 2v36 q24 -3 42 -3q78 0 78 45q0 42 -70 42q-12 0 -32 -2v92h36v-57q109 0 109 -72q0 -83 -124 -83z" />
<glyph unicode="&#xc8;" horiz-adv-x="383" d="M39 0v700h327v-44h-279v-281h259v-44h-259v-287h295v-44h-343zM229 780l-121 160h51l114 -160h-44z" />
<glyph unicode="&#xc9;" horiz-adv-x="383" d="M39 0v700h327v-44h-279v-281h259v-44h-259v-287h295v-44h-343zM153 780h-44l114 160h51z" />
<glyph unicode="&#xca;" horiz-adv-x="383" d="M39 0v700h327v-44h-279v-281h259v-44h-259v-287h295v-44h-343zM268 780l-77 117l-78 -117h-40l108 164h22l107 -164h-42z" />
<glyph unicode="&#xcb;" horiz-adv-x="383" d="M39 0v700h327v-44h-279v-281h259v-44h-259v-287h295v-44h-343zM309 815q0 -15 -11 -25t-26 -10q-14 0 -24 10t-10 25q0 14 10 24t24 10q15 0 26 -10t11 -24zM146 815q0 -15 -10.5 -25t-25.5 -10q-14 0 -24.5 10t-10.5 25q0 14 10 24t24 10q15 0 26 -10t11 -24z" />
<glyph unicode="&#xcc;" horiz-adv-x="226" d="M86 700v-700h-48v700h48zM72 750l-121 160h51l114 -160h-44z" />
<glyph unicode="&#xcd;" horiz-adv-x="226" d="M86 700v-700h-48v700h48zM66 750h-44l114 160h51z" />
<glyph unicode="&#xce;" horiz-adv-x="226" d="M86 700v-700h-48v700h48zM142 750l-77 117l-78 -117h-40l108 164h22l107 -164h-42z" />
<glyph unicode="&#xcf;" horiz-adv-x="226" d="M86 700v-700h-48v700h48zM181 785q0 -15 -11 -25t-26 -10q-14 0 -24 10t-10 25q0 14 10 24t24 10q15 0 26 -10t11 -24zM18 785q0 -15 -10.5 -25t-25.5 -10q-14 0 -24.5 10t-10.5 25q0 14 10 24t24 10q15 0 26 -10t11 -24z" />
<glyph unicode="&#xd0;" horiz-adv-x="649" d="M270 700q173 0 264.5 -86t91.5 -254q0 -126 -57.5 -211t-156.5 -123q-69 -26 -152 -26h-165v326h-73v43h73v331h175zM143 656v-287h197v-43h-197v-282h110q236 0 301 179q22 61 22 135q0 298 -313 298h-120z" />
<glyph unicode="&#xd1;" horiz-adv-x="603" d="M84 610q1 -10 1 -31v-579h-48v700h37l414 -561q15 -21 30 -45h2q-2 40 -2 59v547h48v-700h-34l-417 566q-11 13 -23 34l-6 10h-2zM371 824q23 0 34.5 20.5t11.5 50.5h37q0 -48 -23 -78.5t-65 -30.5q-33 0 -74 37q-31 27 -58 27q-49 0 -49 -70h-36q0 74 51 100q18 8 35 8 q35 0 78 -35q18 -15 31 -22t27 -7z" />
<glyph unicode="&#xd2;" horiz-adv-x="706" d="M351 -12q-148 0 -237 99q-88 98 -88 256q0 128 51.5 215.5t145.5 127.5q61 26 141 26q141 0 229 -97q88 -96 88 -254q0 -129 -51 -218.5t-144 -128.5q-63 -26 -135 -26zM355 668q-123 0 -200 -89q-79 -91 -79 -231q0 -108 42 -183.5t119 -109.5q52 -23 113 -23 q102 0 167.5 50t93.5 136q20 62 20 135q0 110 -42 185t-120 108q-53 22 -114 22zM391 780l-121 160h51l114 -160h-44z" />
<glyph unicode="&#xd3;" horiz-adv-x="706" d="M351 -12q-148 0 -237 99q-88 98 -88 256q0 128 51.5 215.5t145.5 127.5q61 26 141 26q141 0 229 -97q88 -96 88 -254q0 -129 -51 -218.5t-144 -128.5q-63 -26 -135 -26zM355 668q-123 0 -200 -89q-79 -91 -79 -231q0 -108 42 -183.5t119 -109.5q52 -23 113 -23 q102 0 167.5 50t93.5 136q20 62 20 135q0 110 -42 185t-120 108q-53 22 -114 22zM315 780h-44l114 160h51z" />
<glyph unicode="&#xd4;" horiz-adv-x="706" d="M351 -12q-148 0 -237 99q-88 98 -88 256q0 128 51.5 215.5t145.5 127.5q61 26 141 26q141 0 229 -97q88 -96 88 -254q0 -129 -51 -218.5t-144 -128.5q-63 -26 -135 -26zM355 668q-123 0 -200 -89q-79 -91 -79 -231q0 -108 42 -183.5t119 -109.5q52 -23 113 -23 q102 0 167.5 50t93.5 136q20 62 20 135q0 110 -42 185t-120 108q-53 22 -114 22zM430 780l-77 117l-78 -117h-40l108 164h22l107 -164h-42z" />
<glyph unicode="&#xd5;" horiz-adv-x="706" d="M351 -12q-148 0 -237 99q-88 98 -88 256q0 128 51.5 215.5t145.5 127.5q61 26 141 26q141 0 229 -97q88 -96 88 -254q0 -129 -51 -218.5t-144 -128.5q-63 -26 -135 -26zM355 668q-123 0 -200 -89q-79 -91 -79 -231q0 -108 42 -183.5t119 -109.5q52 -23 113 -23 q102 0 167.5 50t93.5 136q20 62 20 135q0 110 -42 185t-120 108q-53 22 -114 22zM423 824q23 0 34.5 20.5t11.5 50.5h37q0 -48 -23 -78.5t-65 -30.5q-33 0 -74 37q-31 27 -58 27q-49 0 -49 -70h-36q0 74 51 100q18 8 35 8q35 0 78 -35q18 -15 31 -22t27 -7z" />
<glyph unicode="&#xd6;" horiz-adv-x="706" d="M351 -12q-148 0 -237 99q-88 98 -88 256q0 128 51.5 215.5t145.5 127.5q61 26 141 26q141 0 229 -97q88 -96 88 -254q0 -129 -51 -218.5t-144 -128.5q-63 -26 -135 -26zM355 668q-123 0 -200 -89q-79 -91 -79 -231q0 -108 42 -183.5t119 -109.5q52 -23 113 -23 q102 0 167.5 50t93.5 136q20 62 20 135q0 110 -42 185t-120 108q-53 22 -114 22zM471 815q0 -15 -11 -25t-26 -10q-14 0 -24 10t-10 25q0 14 10 24t24 10q15 0 26 -10t11 -24zM308 815q0 -15 -10.5 -25t-25.5 -10q-14 0 -24.5 10t-10.5 25q0 14 10 24t24 10q15 0 26 -10 t11 -24z" />
<glyph unicode="&#xd7;" horiz-adv-x="444" d="M385 99l-162 164l-163 -164l-30 29l163 163l-163 164l30 29l163 -164l162 164l30 -29l-164 -164l164 -163z" />
<glyph unicode="&#xd8;" horiz-adv-x="717" d="M37 343q0 128 51.5 215.5t145.5 127.5q61 26 141 26q116 0 195 -64l68 81l31 -26l-69 -82q92 -100 92 -260q0 -129 -50.5 -218.5t-143.5 -128.5q-63 -26 -136 -26q-134 0 -223 84l-83 -99l-31 25l87 104q-75 97 -75 241zM367 668q-124 0 -201 -89q-79 -91 -79 -231 q0 -125 57 -208l396 472q-70 56 -173 56zM361 32q102 0 168 50t94 136q19 58 19 135q0 146 -73 231l-399 -475q75 -77 191 -77z" />
<glyph unicode="&#xd9;" horiz-adv-x="647" d="M518 280q0 -292 -249 -292q-237 0 -237 281v431h48v-424q0 -244 198 -244q192 0 192 237v431h48v-420zM300 750l-121 160h51l114 -160h-44z" />
<glyph unicode="&#xda;" horiz-adv-x="647" d="M518 280q0 -292 -249 -292q-237 0 -237 281v431h48v-424q0 -244 198 -244q192 0 192 237v431h48v-420zM263 749h-44l114 160h51z" />
<glyph unicode="&#xdb;" horiz-adv-x="647" d="M518 280q0 -292 -249 -292q-237 0 -237 281v431h48v-424q0 -244 198 -244q192 0 192 237v431h48v-420zM370 750l-77 117l-78 -117h-40l108 164h22l107 -164h-42z" />
<glyph unicode="&#xdc;" horiz-adv-x="647" d="M518 280q0 -292 -249 -292q-237 0 -237 281v431h48v-424q0 -244 198 -244q192 0 192 237v431h48v-420zM405 785q0 -15 -11 -25t-26 -10q-14 0 -24 10t-10 25q0 14 10 24t24 10q15 0 26 -10t11 -24zM242 785q0 -15 -10.5 -25t-25.5 -10q-14 0 -24.5 10t-10.5 25 q0 14 10 24t24 10q15 0 26 -10t11 -24z" />
<glyph unicode="&#xdd;" horiz-adv-x="540" d="M273 0h-48v265l-214 435h54l163 -337q18 -41 22 -52h2q4 10 24 51l171 338h52l-226 -434v-266zM199 765h-44l114 160h51z" />
<glyph unicode="&#xde;" horiz-adv-x="427" d="M83 165v-165h-48v700h48v-116h121q222 0 222 -197q0 -79 -38.5 -131t-103.5 -75q-44 -16 -102 -16h-99zM183 209q92 0 142.5 43.5t50.5 128.5q0 159 -181 159h-112v-331h100z" />
<glyph unicode="&#xdf;" horiz-adv-x="449" d="M231 29q106 0 140 93q11 30 11 64q0 76 -53 126q-52 49 -150 65v39q150 34 150 162q0 92 -69 120q-22 9 -51 9q-55 0 -83 -25.5t-40 -77.5q-8 -36 -8 -102v-501h-45v508q0 132 49 189q43 50 132 50q113 0 150 -96q11 -28 11 -67q0 -129 -125 -183v-2q128 -34 166 -140 q13 -36 13 -71q0 -68 -31.5 -115.5t-84.5 -70.5q-36 -15 -80 -15q-24 0 -71 14q-10 3 -16 7l17 34q39 -14 68 -14z" />
<glyph unicode="&#xe0;" horiz-adv-x="494" d="M233 512q81 0 121.5 -49t40.5 -138v-325h-45v79q-14 -35 -66 -63t-107 -28q-53 0 -90 23t-53 62q-11 27 -11 56q4 147 194 161q64 4 133 -9v46q-6 144 -121 144q-90 0 -155 -59l-28 29q68 71 187 71zM70 131q0 -71 65 -95q20 -7 47 -7q72 0 117 36q46 38 50 62v117 q-89 18 -172 0q-65 -15 -92 -57q-15 -23 -15 -56zM220 580l-121 160h51l114 -160h-44z" />
<glyph unicode="&#xe1;" horiz-adv-x="494" d="M233 512q81 0 121.5 -49t40.5 -138v-325h-45v79q-14 -35 -66 -63t-107 -28q-53 0 -90 23t-53 62q-11 27 -11 56q4 147 194 161q64 4 133 -9v46q-6 144 -121 144q-90 0 -155 -59l-28 29q68 71 187 71zM70 131q0 -71 65 -95q20 -7 47 -7q72 0 117 36q46 38 50 62v117 q-89 18 -172 0q-65 -15 -92 -57q-15 -23 -15 -56zM160 580h-44l114 160h51z" />
<glyph unicode="&#xe2;" horiz-adv-x="494" d="M233 512q81 0 121.5 -49t40.5 -138v-325h-45v79q-14 -35 -66 -63t-107 -28q-53 0 -90 23t-53 62q-11 27 -11 56q4 147 194 161q64 4 133 -9v46q-6 144 -121 144q-90 0 -155 -59l-28 29q68 71 187 71zM70 131q0 -71 65 -95q20 -7 47 -7q72 0 117 36q46 38 50 62v117 q-89 18 -172 0q-65 -15 -92 -57q-15 -23 -15 -56zM277 580l-77 117l-78 -117h-40l108 164h22l107 -164h-42z" />
<glyph unicode="&#xe3;" horiz-adv-x="494" d="M233 512q81 0 121.5 -49t40.5 -138v-325h-45v79q-14 -35 -66 -63t-107 -28q-53 0 -90 23t-53 62q-11 27 -11 56q4 147 194 161q64 4 133 -9v46q-6 144 -121 144q-90 0 -155 -59l-28 29q68 71 187 71zM70 131q0 -71 65 -95q20 -7 47 -7q72 0 117 36q46 38 50 62v117 q-89 18 -172 0q-65 -15 -92 -57q-15 -23 -15 -56zM326 624q23 0 34.5 20.5t11.5 50.5h37q0 -48 -23 -78.5t-65 -30.5q-33 0 -74 37q-31 27 -58 27q-49 0 -49 -70h-36q0 74 51 100q18 8 35 8q35 0 78 -35q18 -15 31 -22t27 -7z" />
<glyph unicode="&#xe4;" horiz-adv-x="494" d="M233 512q81 0 121.5 -49t40.5 -138v-325h-45v79q-14 -35 -66 -63t-107 -28q-53 0 -90 23t-53 62q-11 27 -11 56q4 147 194 161q64 4 133 -9v46q-6 144 -121 144q-90 0 -155 -59l-28 29q68 71 187 71zM70 131q0 -71 65 -95q20 -7 47 -7q72 0 117 36q46 38 50 62v117 q-89 18 -172 0q-65 -15 -92 -57q-15 -23 -15 -56zM310 615q0 -15 -11 -25t-26 -10q-14 0 -24 10t-10 25q0 14 10 24t24 10q15 0 26 -10t11 -24zM147 615q0 -15 -10.5 -25t-25.5 -10q-14 0 -24.5 10t-10.5 25q0 14 10 24t24 10q15 0 26 -10t11 -24z" />
<glyph unicode="&#xe5;" horiz-adv-x="414" d="M246 580q-67 0 -91 53q-8 18 -8 37q0 61 59 83q17 7 40 7q67 0 90 -53q8 -18 8 -37q0 -60 -60 -83q-17 -7 -38 -7zM309 670q0 26 -17.5 41.5t-45.5 15.5t-45 -15.5t-17 -41.5t17 -41.5t45 -15.5q27 0 45 15.5t18 41.5zM203 290q76 0 138 -42v79q-6 144 -121 144 q-90 0 -155 -59l-28 29q68 71 188 71q81 0 121 -49t40 -138v-325h-45v79q-15 -36 -65 -63q-52 -28 -108 -28q-53 0 -90 23t-53 62q-11 27 -11 56q12 116 121 151q31 10 68 10zM340 209q-64 43 -132 43q-98 0 -135 -72q-11 -21 -11 -49q0 -71 64 -95q20 -7 47 -7q72 0 117 36 q46 38 50 62v82z" />
<glyph unicode="&#xe7;" horiz-adv-x="443" d="M402 31q-58 -43 -140 -43q-85 0 -140.5 41.5t-80.5 112.5q-16 47 -16 105q0 93 37.5 156.5t105.5 90.5q45 18 99 18q80 0 136 -40l-24 -35q-44 34 -114 34t-115 -35t-65 -95q-13 -40 -13 -95q0 -153 111 -202q36 -15 80 -15q70 0 117 37zM236 -212q-13 0 -39 2v36 q24 -3 42 -3q78 0 78 45q0 42 -70 42q-12 0 -32 -2v92h36v-57q109 0 109 -72q0 -83 -124 -83z" />
<glyph unicode="&#xe8;" horiz-adv-x="504" d="M71 248q0 -157 104 -204q33 -15 75 -15q84 0 149 53l21 -34q-84 -60 -180 -60q-99 0 -156 69q-60 71 -60 196q0 109 63 184t162 75q140 0 180 -142q12 -45 12 -102v-20h-370zM247 471q-110 0 -154 -104q-14 -31 -20 -78h322q-5 132 -88 170q-27 12 -60 12zM245 580 l-121 160h51l114 -160h-44z" />
<glyph unicode="&#xe9;" horiz-adv-x="504" d="M71 248q0 -157 104 -204q33 -15 75 -15q84 0 149 53l21 -34q-84 -60 -180 -60q-99 0 -156 69q-60 71 -60 196q0 109 63 184t162 75q140 0 180 -142q12 -45 12 -102v-20h-370zM247 471q-110 0 -154 -104q-14 -31 -20 -78h322q-5 132 -88 170q-27 12 -60 12zM178 580h-44 l114 160h51z" />
<glyph unicode="&#xea;" horiz-adv-x="504" d="M71 248q0 -157 104 -204q33 -15 75 -15q84 0 149 53l21 -34q-84 -60 -180 -60q-99 0 -156 69q-60 71 -60 196q0 109 63 184t162 75q140 0 180 -142q12 -45 12 -102v-20h-370zM247 471q-110 0 -154 -104q-14 -31 -20 -78h322q-5 132 -88 170q-27 12 -60 12zM294 580 l-77 117l-78 -117h-40l108 164h22l107 -164h-42z" />
<glyph unicode="&#xeb;" horiz-adv-x="504" d="M71 248q0 -157 104 -204q33 -15 75 -15q84 0 149 53l21 -34q-84 -60 -180 -60q-99 0 -156 69q-60 71 -60 196q0 109 63 184t162 75q140 0 180 -142q12 -45 12 -102v-20h-370zM247 471q-110 0 -154 -104q-14 -31 -20 -78h322q-5 132 -88 170q-27 12 -60 12zM328 615 q0 -15 -11 -25t-26 -10q-14 0 -24 10t-10 25q0 14 10 24t24 10q15 0 26 -10t11 -24zM165 615q0 -15 -10.5 -25t-25.5 -10q-14 0 -24.5 10t-10.5 25q0 14 10 24t24 10q15 0 26 -10t11 -24z" />
<glyph unicode="&#xec;" horiz-adv-x="185" d="M111 0v500h45v-500h-45zM122 580l-121 160h51l114 -160h-44z" />
<glyph unicode="&#xed;" horiz-adv-x="177" d="M49 0v500h45v-500h-45zM-8 580h-44l114 160h51z" />
<glyph unicode="&#xee;" horiz-adv-x="248" d="M101 0v500h45v-500h-45zM151 580l-77 117l-78 -117h-40l108 164h22l107 -164h-42z" />
<glyph unicode="&#xef;" horiz-adv-x="242" d="M98 0v500h45v-500h-45zM187 615q0 -15 -10.5 -25t-25.5 -10q-14 0 -24.5 10t-10.5 25q0 14 10 24t24 10q15 0 26 -10t11 -24zM24 615q0 -15 -10.5 -25t-25.5 -10q-14 0 -24.5 10t-10.5 25q0 14 10 24t24 10q15 0 26 -10t11 -24z" />
<glyph unicode="&#xf0;" horiz-adv-x="485" d="M183 739q25 -17 90 -76l147 73l18 -35l-137 -66q118 -123 151 -285q10 -49 10 -101q0 -88 -33.5 -150.5t-94.5 -91.5q-39 -19 -92 -19q-163 0 -209 153q-14 45 -14 106q0 89 35.5 152.5t98.5 93.5q41 19 94 19q71 0 119 -45l2 2q-49 87 -107 145l-146 -73l-17 34l134 65 q-58 52 -123 99h74zM247 471q-82 0 -132 -62q-50 -63 -50 -163q0 -155 103 -202q33 -15 75 -15q123 0 161 130q12 40 12 91q0 221 -169 221z" />
<glyph unicode="&#xf1;" horiz-adv-x="535" d="M394 321v-321h-45v304q0 167 -127 167q-91 -7 -142 -101v-370h-45v500h45v-83q32 50 70 72q40 23 84 23q61 0 107 -46q53 -55 53 -145zM361 624q23 0 34.5 20.5t11.5 50.5h37q0 -48 -23 -78.5t-65 -30.5q-33 0 -74 37q-31 27 -58 27q-49 0 -49 -70h-36q0 74 51 100 q18 8 35 8q35 0 78 -35q18 -15 31 -22t27 -7z" />
<glyph unicode="&#xf2;" horiz-adv-x="561" d="M262 -12q-85 0 -140.5 41.5t-80.5 112.5q-16 47 -16 105q0 93 37.5 156.5t105.5 90.5q45 18 99 18q84 0 138 -41t77 -112q16 -48 16 -110q0 -89 -36.5 -151.5t-101.5 -90.5q-42 -19 -98 -19zM451 250q0 104 -46.5 162.5t-139.5 58.5q-70 0 -115 -35t-65 -95 q-13 -40 -13 -95q0 -153 111 -202q36 -15 80 -15q137 0 176 128q12 41 12 93zM256 580l-121 160h51l114 -160h-44z" />
<glyph unicode="&#xf3;" horiz-adv-x="561" d="M262 -12q-85 0 -140.5 41.5t-80.5 112.5q-16 47 -16 105q0 93 37.5 156.5t105.5 90.5q45 18 99 18q84 0 138 -41t77 -112q16 -48 16 -110q0 -89 -36.5 -151.5t-101.5 -90.5q-42 -19 -98 -19zM451 250q0 104 -46.5 162.5t-139.5 58.5q-70 0 -115 -35t-65 -95 q-13 -40 -13 -95q0 -153 111 -202q36 -15 80 -15q137 0 176 128q12 41 12 93zM203 580h-44l114 160h51z" />
<glyph unicode="&#xf4;" horiz-adv-x="561" d="M262 -12q-85 0 -140.5 41.5t-80.5 112.5q-16 47 -16 105q0 93 37.5 156.5t105.5 90.5q45 18 99 18q84 0 138 -41t77 -112q16 -48 16 -110q0 -89 -36.5 -151.5t-101.5 -90.5q-42 -19 -98 -19zM451 250q0 104 -46.5 162.5t-139.5 58.5q-70 0 -115 -35t-65 -95 q-13 -40 -13 -95q0 -153 111 -202q36 -15 80 -15q137 0 176 128q12 41 12 93zM315 580l-77 117l-78 -117h-40l108 164h22l107 -164h-42z" />
<glyph unicode="&#xf5;" horiz-adv-x="561" d="M262 -12q-85 0 -140.5 41.5t-80.5 112.5q-16 47 -16 105q0 93 37.5 156.5t105.5 90.5q45 18 99 18q84 0 138 -41t77 -112q16 -48 16 -110q0 -89 -36.5 -151.5t-101.5 -90.5q-42 -19 -98 -19zM451 250q0 104 -46.5 162.5t-139.5 58.5q-70 0 -115 -35t-65 -95 q-13 -40 -13 -95q0 -153 111 -202q36 -15 80 -15q137 0 176 128q12 41 12 93zM369 624q23 0 34.5 20.5t11.5 50.5h37q0 -48 -23 -78.5t-65 -30.5q-33 0 -74 37q-31 27 -58 27q-49 0 -49 -70h-36q0 74 51 100q18 8 35 8q35 0 78 -35q18 -15 31 -22t27 -7z" />
<glyph unicode="&#xf6;" horiz-adv-x="561" d="M262 -12q-85 0 -140.5 41.5t-80.5 112.5q-16 47 -16 105q0 93 37.5 156.5t105.5 90.5q45 18 99 18q84 0 138 -41t77 -112q16 -48 16 -110q0 -89 -36.5 -151.5t-101.5 -90.5q-42 -19 -98 -19zM451 250q0 104 -46.5 162.5t-139.5 58.5q-70 0 -115 -35t-65 -95 q-13 -40 -13 -95q0 -153 111 -202q36 -15 80 -15q137 0 176 128q12 41 12 93zM351 615q0 -15 -11 -25t-26 -10q-14 0 -24 10t-10 25q0 14 10 24t24 10q15 0 26 -10t11 -24zM188 615q0 -15 -10.5 -25t-25.5 -10q-14 0 -24.5 10t-10.5 25q0 14 10 24t24 10q15 0 26 -10t11 -24 z" />
<glyph unicode="&#xf7;" horiz-adv-x="448" d="M262 461q0 -16 -10.5 -27t-26.5 -11t-27 11t-11 27t11 26.5t27 10.5t26.5 -10.5t10.5 -26.5zM3 271v41h443v-41h-443zM262 123q0 -16 -10.5 -27t-26.5 -11t-27 11t-11 27t11 26.5t27 10.5t26.5 -10.5t10.5 -26.5z" />
<glyph unicode="&#xf8;" horiz-adv-x="582" d="M523 249q0 -89 -36.5 -151.5t-101.5 -90.5q-42 -19 -98 -19q-94 0 -156 55l-81 -90l-30 28l83 92q-53 71 -53 174q0 93 37.5 156.5t105.5 90.5q45 18 99 18q98 0 157 -56l84 93l30 -27l-88 -97q48 -69 48 -176zM290 471q-70 0 -115 -35t-65 -95q-13 -40 -13 -95 q0 -83 37 -139l285 316q-48 48 -129 48zM476 250q0 82 -32 140l-284 -314q50 -47 128 -47q137 0 176 128q12 41 12 93z" />
<glyph unicode="&#xf9;" horiz-adv-x="535" d="M76 222q0 -94 30.5 -143.5t109.5 -49.5q94 0 155 107v364h45v-500h-45v91q-69 -104 -155 -104q-98 0 -141.5 56.5t-43.5 167.5v289h45v-278zM239 580l-121 160h51l114 -160h-44z" />
<glyph unicode="&#xfa;" horiz-adv-x="535" d="M76 222q0 -94 30.5 -143.5t109.5 -49.5q94 0 155 107v364h45v-500h-45v91q-69 -104 -155 -104q-98 0 -141.5 56.5t-43.5 167.5v289h45v-278zM204 580h-44l114 160h51z" />
<glyph unicode="&#xfb;" horiz-adv-x="535" d="M76 222q0 -94 30.5 -143.5t109.5 -49.5q94 0 155 107v364h45v-500h-45v91q-69 -104 -155 -104q-98 0 -141.5 56.5t-43.5 167.5v289h45v-278zM305 580l-77 117l-78 -117h-40l108 164h22l107 -164h-42z" />
<glyph unicode="&#xfc;" horiz-adv-x="535" d="M76 222q0 -94 30.5 -143.5t109.5 -49.5q94 0 155 107v364h45v-500h-45v91q-69 -104 -155 -104q-98 0 -141.5 56.5t-43.5 167.5v289h45v-278zM344 615q0 -15 -11 -25t-26 -10q-14 0 -24 10t-10 25q0 14 10 24t24 10q15 0 26 -10t11 -24zM181 615q0 -15 -10.5 -25 t-25.5 -10q-14 0 -24.5 10t-10.5 25q0 14 10 24t24 10q15 0 26 -10t11 -24z" />
<glyph unicode="&#xfd;" horiz-adv-x="453" d="M69 -235q-22 0 -39 7l14 41q3 -3 27 -3q60 0 95 83l46 111l-189 496h50l151 -407l12 -38q33 88 97.5 251.5t76.5 193.5h49l-244 -602q-20 -50 -42 -80.5t-57 -44.5q-22 -8 -47 -8zM158 580h-44l114 160h51z" />
<glyph unicode="&#xfe;" horiz-adv-x="471" d="M80 -230h-45v970h45v-343q43 82 131 107q30 8 58 8q144 0 188 -143q14 -47 14 -101q0 -93 -34.5 -160t-97.5 -99q-42 -21 -91 -21q-112 0 -168 101v-319zM251 29q77 0 125 66t48 172q0 143 -95 190q-28 14 -66 14q-64 0 -108 -31q-43 -30 -75 -92v-223q48 -96 171 -96z " />
<glyph unicode="&#xff;" horiz-adv-x="450" d="M57 -235q-22 0 -39 7l13 41q3 -3 28 -3q59 0 94 83l47 111l-190 496h51l150 -407l13 -38q5 14 173 445h49l-243 -602q-20 -50 -42 -80.5t-57 -44.5q-22 -8 -47 -8zM347 615q0 -15 -10.5 -25t-25.5 -10q-14 0 -24.5 10t-10.5 25q0 14 10 24t24 10q15 0 26 -10t11 -24z M184 615q0 -15 -10.5 -25t-25.5 -10q-14 0 -24.5 10t-10.5 25q0 14 10 24t24 10q15 0 26 -10t11 -24z" />
<glyph unicode="&#x178;" horiz-adv-x="540" d="M273 0h-48v265l-214 435h54l163 -337q18 -41 22 -52h2q4 10 24 51l171 338h52l-226 -434v-266zM335 784q0 -15 -11 -25t-26 -10q-14 0 -24 10t-10 25q0 14 10 24t24 10q15 0 26 -10t11 -24zM172 784q0 -15 -10.5 -25t-25.5 -10q-14 0 -24.5 10t-10.5 25q0 14 10 24t24 10 q15 0 26 -10t11 -24z" />
<glyph unicode="&#x2c6;" horiz-adv-x="263" d="M208 580l-77 117l-78 -117h-40l108 164h22l107 -164h-42z" />
<glyph unicode="&#x2dc;" horiz-adv-x="356" d="M248 624q23 0 34.5 20.5t11.5 50.5h37q0 -48 -23 -78.5t-65 -30.5q-33 0 -74 37q-31 27 -58 27q-49 0 -49 -70h-36q0 74 51 100q18 8 35 8q35 0 78 -35q18 -15 31 -22t27 -7z" />
<glyph unicode="&#x2000;" horiz-adv-x="472" />
<glyph unicode="&#x2001;" horiz-adv-x="944" />
<glyph unicode="&#x2002;" horiz-adv-x="472" />
<glyph unicode="&#x2003;" horiz-adv-x="944" />
<glyph unicode="&#x2004;" horiz-adv-x="314" />
<glyph unicode="&#x2005;" horiz-adv-x="236" />
<glyph unicode="&#x2006;" horiz-adv-x="157" />
<glyph unicode="&#x2007;" horiz-adv-x="157" />
<glyph unicode="&#x2008;" horiz-adv-x="118" />
<glyph unicode="&#x2009;" horiz-adv-x="188" />
<glyph unicode="&#x200a;" horiz-adv-x="52" />
<glyph unicode="&#x2010;" horiz-adv-x="345" d="M39 271v44h267v-44h-267z" />
<glyph unicode="&#x2011;" horiz-adv-x="345" d="M39 271v44h267v-44h-267z" />
<glyph unicode="&#x2012;" horiz-adv-x="345" d="M39 271v44h267v-44h-267z" />
<glyph unicode="&#x2013;" horiz-adv-x="569" d="M35 271v44h500v-44h-500z" />
<glyph unicode="&#x2014;" horiz-adv-x="1069" d="M35 271v44h1000v-44h-1000z" />
<glyph unicode="&#x2018;" horiz-adv-x="127" d="M58 481h-52l75 219h37z" />
<glyph unicode="&#x2019;" horiz-adv-x="127" d="M45 481h-35l61 219h51z" />
<glyph unicode="&#x201a;" horiz-adv-x="127" d="M46 -110h-36l61 217h51z" />
<glyph unicode="&#x201c;" horiz-adv-x="271" d="M190 481h-51l76 219h36zM70 481h-52l75 219h37z" />
<glyph unicode="&#x201d;" horiz-adv-x="271" d="M179 481h-37l60 219h52zM57 481h-36l61 219h51z" />
<glyph unicode="&#x201e;" horiz-adv-x="271" d="M179 -112h-37l60 219h52zM57 -112h-36l61 219h51z" />
<glyph unicode="&#x2022;" horiz-adv-x="283" d="M143 233q-39 0 -67.5 20t-42.5 51q-9 21 -9 44q0 38 20.5 66t52.5 42q23 10 46 10q38 0 65.5 -20t41.5 -52q10 -23 10 -46q0 -38 -20.5 -65.5t-51.5 -40.5q-21 -9 -45 -9z" />
<glyph unicode="&#x2026;" horiz-adv-x="593" d="M561 32q0 -16 -11.5 -28t-28.5 -12t-28.5 12t-11.5 28t11.5 27.5t28.5 11.5t28.5 -11.5t11.5 -27.5zM335 32q0 -16 -11.5 -28t-28.5 -12q-16 0 -27.5 11.5t-11.5 28.5q0 16 11 27.5t28 11.5t28.5 -11.5t11.5 -27.5zM112 32q0 -16 -12 -28t-28 -12t-27.5 11.5t-11.5 28.5 q0 16 11.5 27.5t27.5 11.5q17 0 28.5 -11.5t11.5 -27.5z" />
<glyph unicode="&#x202f;" horiz-adv-x="188" />
<glyph unicode="&#x2039;" horiz-adv-x="218" d="M141 98l-136 164l136 168h55l-138 -168l137 -164h-54z" />
<glyph unicode="&#x203a;" horiz-adv-x="218" d="M79 98h-57l140 168l-139 164h56l134 -164z" />
<glyph unicode="&#x205f;" horiz-adv-x="236" />
<glyph unicode="&#x20ac;" horiz-adv-x="462" d="M124 341q0 -20 2 -56h270v-41h-265q22 -158 120 -202q29 -13 65 -13q60 0 128 45v-48q-65 -38 -134 -38q-89 0 -148 66q-60 67 -79 190h-71v41h67q-2 32 -2 50q0 35 3 66h-68v41h73q22 126 87 199q66 71 158 71q60 0 114 -26v-50q-59 35 -118 35q-72 0 -123 -58 q-53 -62 -72 -171h265v-41h-270q-2 -18 -2 -60z" />
<glyph unicode="&#x2122;" horiz-adv-x="695" d="M621 377v260l-113 -260h-33l-108 260v-260h-40v323h56l109 -266h2l114 266h53v-323h-40zM171 662v-285h-40v285h-108v38h257v-38h-109z" />
<glyph unicode="&#x25fc;" horiz-adv-x="500" d="M0 500h500v-500h-500v500z" />
<glyph unicode="&#xfb03;" horiz-adv-x="707" d="M431 500h249v-500h-45v459h-204v-459h-45v459h-231v-459h-45v459h-90v41h90v87q0 117 84 151q24 10 55 10q33 0 71 -19l-18 -36q-19 14 -55 14q-92 0 -92 -124v-83h231v87q0 117 84 151q24 10 55 10q33 0 71 -19l-18 -36q-19 14 -55 14q-92 0 -92 -124v-83z" />
<glyph unicode="&#xfb04;" horiz-adv-x="833" d="M682 129q0 -50 15.5 -74t56.5 -24q28 0 60 18v-42q-34 -17 -66 -17q-111 0 -111 133v525q-14 59 -112 59q-92 0 -92 -124v-83h132v-41h-132v-459h-45v459h-231v-459h-45v459h-90v41h90v87q0 117 84 151q24 10 55 10q33 0 71 -19l-18 -36q-19 14 -55 14q-92 0 -92 -124 v-83h231v87q0 116 85 151q24 10 54 10q140 0 155 -100v-519z" />
</font>
</defs>
</svg>
